<svg width="84" height="84" viewBox="0 0 84 84" fill="none" xmlns="http://www.w3.org/2000/svg">
<path d="M28 7.00001V21M56 7.00001V21M10.5 35H73.5M17.5 14H66.5C70.366 14 73.5 17.134 73.5 21V70C73.5 73.866 70.366 77 66.5 77H17.5C13.634 77 10.5 73.866 10.5 70V21C10.5 17.134 13.634 14 17.5 14Z" stroke="#9ACD32" stroke-width="6" stroke-linecap="round" stroke-linejoin="round"/>
<circle cx="24" cy="44" r="2.5" fill="#9ACD32" stroke="#9ACD32"/>
<circle cx="24" cy="56" r="2.5" fill="#9ACD32" stroke="#9ACD32"/>
<circle cx="24" cy="68" r="2.5" fill="#9ACD32" stroke="#9ACD32"/>
<circle cx="36" cy="44" r="2.5" fill="#9ACD32" stroke="#9ACD32"/>
<circle cx="36" cy="56" r="2.5" fill="#9ACD32" stroke="#9ACD32"/>
<circle cx="36" cy="68" r="2.5" fill="#9ACD32" stroke="#9ACD32"/>
<circle cx="48" cy="44" r="2.5" fill="#9ACD32" stroke="#9ACD32"/>
<circle cx="48" cy="56" r="2.5" fill="#9ACD32" stroke="#9ACD32"/>
<circle cx="48" cy="68" r="2.5" fill="#9ACD32" stroke="#9ACD32"/>
<circle cx="60" cy="44" r="2.5" fill="#9ACD32" stroke="#9ACD32"/>
<circle cx="60" cy="56" r="2.5" fill="#9ACD32" stroke="#9ACD32"/>
<circle cx="60" cy="68" r="2.5" fill="#9ACD32" stroke="#9ACD32"/>
</svg>